<svg width="20" height="47" viewBox="0 0 20 47" fill="none" xmlns="http://www.w3.org/2000/svg">
<g clip-path="url(#clip0)">
<path d="M10.8813 18.8897C13.7007 18.8897 15.8152 17.9499 17.2249 16.3053C21.1015 11.3714 17.3424 1.50359 17.1074 1.03369C17.1074 1.03369 17.1074 1.03369 17.1074 0.91622C17.1074 0.91622 17.1074 0.91622 17.1074 0.798747C17.1074 0.681273 16.99 0.681273 16.99 0.681273C16.8725 0.681273 16.8725 0.563799 16.755 0.563799C16.755 0.563799 16.755 0.563799 16.6375 0.563799H16.5201C11.8211 0.563799 4.89018 5.49769 3.71545 10.784C3.36303 12.6636 3.4805 16.0703 8.29692 18.4198C8.06197 19.3596 7.82702 20.4168 7.70955 21.4741H2.89313C1.60092 21.4741 0.661133 22.5314 0.661133 23.7061C0.661133 24.8808 1.60092 25.9381 2.77566 25.9381V39.9175C2.77566 43.4417 5.7125 46.3785 9.23671 46.3785C12.7609 46.3785 15.6978 43.4417 15.6978 39.9175V25.9381C16.8725 25.9381 17.8123 24.8808 17.8123 23.7061C17.8123 22.4139 16.755 21.4741 15.5803 21.4741H9.23671C9.35418 20.5343 9.58913 19.712 9.7066 18.8897C10.1765 18.8897 10.5289 18.8897 10.8813 18.8897ZM2.18829 23.7061C2.18829 23.2362 2.54071 23.0013 2.89313 23.0013H7.4746C7.35713 23.4711 7.35713 23.941 7.35713 24.5284H2.89313C2.54071 24.5284 2.18829 24.176 2.18829 23.7061ZM14.1706 29.5798H8.76681C8.64934 28.405 8.64934 27.1128 8.76681 25.9381H14.2881V29.5798H14.1706ZM7.23966 29.5798H4.30281V25.9381H7.23966C7.23966 27.2303 7.23966 28.405 7.23966 29.5798ZM9.23671 44.8513C6.53481 44.8513 4.30281 42.6193 4.30281 39.9175V31.1069H7.35713C7.70955 34.1612 8.41439 37.2156 9.82407 40.1524C9.94155 40.3873 10.1765 40.6223 10.5289 40.6223C10.6464 40.6223 10.7639 40.6223 10.8813 40.5048C11.2338 40.3873 11.4687 39.9175 11.2338 39.565C9.94155 36.7457 9.23671 33.9263 9.00176 31.1069H14.2881V39.9175C14.1706 42.6193 12.0561 44.8513 9.23671 44.8513ZM15.6978 23.0013C16.1676 23.0013 16.4026 23.3537 16.4026 23.7061C16.4026 24.176 16.0502 24.4109 15.6978 24.4109H8.88429C8.88429 23.941 9.00176 23.3537 9.00176 22.8838H15.6978V23.0013ZM16.0502 15.3655C14.8754 16.8926 12.8784 17.5975 10.059 17.3625C11.8211 10.6665 14.758 5.38022 16.1676 3.03075C17.1074 5.85011 18.6346 12.0762 16.0502 15.3655ZM5.12513 11.1364C5.94745 7.14232 11.1163 3.14822 14.9929 2.20843C13.4658 4.67537 10.4114 10.1966 8.64934 17.0101C5.82997 15.6004 4.65524 13.6034 5.12513 11.1364Z" fill="#1A171B" stroke="black" stroke-width="0.2" stroke-miterlimit="10"/>
</g>
<defs>
<clipPath id="clip0">
<rect width="18.5608" height="46.0496" fill="white" transform="translate(0.543457 0.44632)"/>
</clipPath>
</defs>
</svg>
