<svg width="25" height="24" viewBox="0 0 25 24" fill="none" xmlns="http://www.w3.org/2000/svg">
<path d="M11.0136 1L22.1679 12.2071C24.6107 14.6872 24.6107 18.6809 22.1679 21.161V21.161C19.7063 23.613 15.7376 23.613 13.276 21.161V21.161L2.41677 10.2503C1.50977 9.34175 1 8.10783 1 6.82099C1 5.53414 1.50977 4.30022 2.41677 3.39164V3.39164C4.30234 1.51763 7.33788 1.51763 9.22344 3.39164L9.38082 3.54977L16.8564 11.0607C18.1135 12.3514 18.1135 14.4149 16.8564 15.7056V15.7056C15.5717 16.9687 13.518 16.9687 12.2333 15.7056L6.607 10.0329" stroke="#FED44A" stroke-width="1.98" stroke-linecap="round" stroke-linejoin="round"/>
</svg>
