<svg width="26" height="26" viewBox="0 0 26 26" fill="none" xmlns="http://www.w3.org/2000/svg">
<g clip-path="url(#clip0)">
<path d="M12.9413 15.408C14.2335 15.408 15.2907 14.3507 15.2907 13.0585C15.2907 11.7663 14.2335 10.709 12.9413 10.709C11.6491 10.709 10.5918 11.7663 10.5918 13.0585C10.5918 14.3507 11.6491 15.408 12.9413 15.408Z" stroke="black" stroke-width="1.6989" stroke-linecap="round" stroke-linejoin="round"/>
<path d="M16.9354 16.9351C23.1615 10.709 26.4508 3.89557 24.2188 1.66357C21.9868 -0.568433 15.2908 2.8383 9.06465 9.06441C2.83855 15.2905 -0.450715 22.104 1.78128 24.336C3.89581 26.4505 10.7093 23.1612 16.9354 16.9351Z" stroke="black" stroke-width="1.6989" stroke-linecap="round" stroke-linejoin="round"/>
<path d="M24.2185 24.2185C26.4505 21.9865 23.1613 15.173 16.9352 8.94693C10.7091 2.8383 3.89561 -0.45096 1.66361 1.66357C-0.568391 3.89556 2.72087 10.709 8.94697 16.9351C15.2906 23.1612 22.104 26.4505 24.2185 24.2185Z" stroke="black" stroke-width="1.6989" stroke-linecap="round" stroke-linejoin="round"/>
</g>
<defs>
<clipPath id="clip0">
<rect width="25.9617" height="25.9617" fill="white" transform="translate(0.019043 0.0189362)"/>
</clipPath>
</defs>
</svg>
