<svg width="34" height="34" viewBox="0 0 34 34" fill="none" xmlns="http://www.w3.org/2000/svg">
<g clip-path="url(#clip0)">
<path d="M6.01609 4.25389L13.4169 7.07326C14.3567 7.42568 14.9441 8.36547 14.7091 9.42273L14.2393 11.5373C14.1218 12.3596 13.5344 12.9469 12.7121 13.1819L9.89273 13.8867L8.24809 17.8808C7.89567 18.7031 7.42578 19.2905 6.72094 19.7604L4.01904 21.5225" stroke="black" stroke-width="1.7" stroke-linecap="round" stroke-linejoin="round"/>
<path d="M22.58 5.19366L21.2878 6.95577C20.4655 8.01303 20.2305 9.42272 20.7004 10.7149L21.0528 11.7722" stroke="black" stroke-width="1.7" stroke-linecap="round" stroke-linejoin="round"/>
<path d="M11.7724 25.9865C5.54631 24.9293 1.19978 19.408 1.5522 13.1819C1.90462 6.95579 6.95599 1.90442 13.1821 1.552C19.4082 1.19958 25.0469 5.66358 26.1042 11.7722" stroke="black" stroke-width="1.7" stroke-linecap="round" stroke-linejoin="round"/>
<path d="M15.2962 23.5196C14.9437 23.4021 14.5913 23.0497 14.5913 22.5798C14.5913 22.1099 14.8263 21.7575 15.1787 21.64L32.3298 14.5916L25.3989 31.6252C25.2814 31.9777 24.8115 32.3301 24.4591 32.2126C23.9892 32.2126 23.6368 31.8602 23.5193 31.5078L21.5223 25.3991L15.2962 23.5196Z" stroke="black" stroke-width="1.7" stroke-linecap="round" stroke-linejoin="round"/>
<path d="M21.4048 25.5166L25.1639 21.7574" stroke="black" stroke-width="1.7" stroke-linecap="round" stroke-linejoin="round"/>
</g>
<defs>
<clipPath id="clip0">
<rect width="32.8926" height="32.8926" fill="white" transform="translate(0.494629 0.49472)"/>
</clipPath>
</defs>
</svg>
