<svg width="34" height="36" viewBox="0 0 34 36" fill="none" xmlns="http://www.w3.org/2000/svg">
<g clip-path="url(#clip0)">
<path d="M10.3623 5.72377V14.6518" stroke="black" stroke-width="1.7" stroke-linecap="round" stroke-linejoin="round"/>
<path d="M5.89844 10.1878H14.8264" stroke="black" stroke-width="1.7" stroke-linecap="round" stroke-linejoin="round"/>
<path d="M27.0439 15.8265L20.4653 22.405" stroke="black" stroke-width="1.7" stroke-linecap="round" stroke-linejoin="round"/>
<path d="M20.4653 15.8265L27.1613 22.5225" stroke="black" stroke-width="1.7" stroke-linecap="round" stroke-linejoin="round"/>
<path d="M7.07324 25.8118H14.8265" stroke="black" stroke-width="1.7" stroke-linecap="round" stroke-linejoin="round"/>
<path d="M10.9497 21.3478C11.3021 21.3478 11.5371 21.5827 11.5371 21.9351" stroke="black" stroke-width="1.7" stroke-linecap="round" stroke-linejoin="round"/>
<path d="M10.3623 21.9351C10.3623 21.5827 10.5973 21.3478 10.9497 21.3478" stroke="black" stroke-width="1.7" stroke-linecap="round" stroke-linejoin="round"/>
<path d="M10.9499 22.405C10.8324 22.405 10.7149 22.405 10.5975 22.2876C10.48 22.1701 10.48 22.0526 10.48 21.9351" stroke="black" stroke-width="1.7" stroke-linecap="round" stroke-linejoin="round"/>
<path d="M11.5373 21.9351C11.5373 22.0526 11.5373 22.1701 11.4198 22.2876C11.3023 22.405 11.1849 22.405 11.0674 22.405" stroke="black" stroke-width="1.7" stroke-linecap="round" stroke-linejoin="round"/>
<path d="M10.9497 29.101C11.3021 29.101 11.5371 29.336 11.5371 29.6884" stroke="black" stroke-width="1.7" stroke-linecap="round" stroke-linejoin="round"/>
<path d="M10.3623 29.6884C10.3623 29.336 10.5973 29.101 10.9497 29.101" stroke="black" stroke-width="1.7" stroke-linecap="round" stroke-linejoin="round"/>
<path d="M10.9499 30.2758C10.8324 30.2758 10.7149 30.2758 10.5975 30.1583C10.48 30.0408 10.48 29.9233 10.48 29.8059" stroke="black" stroke-width="1.7" stroke-linecap="round" stroke-linejoin="round"/>
<path d="M11.5373 29.6884C11.5373 29.8059 11.5373 29.9233 11.4198 30.0408C11.3023 30.1583 11.1849 30.1583 11.0674 30.1583" stroke="black" stroke-width="1.7" stroke-linecap="round" stroke-linejoin="round"/>
<path d="M32.6826 32.5078C32.6826 33.6825 31.7428 34.7398 30.4506 34.7398H3.66657C2.49183 34.7398 1.43457 33.8 1.43457 32.5078V3.49177C1.43457 2.31703 2.37436 1.25977 3.66657 1.25977H25.9866C26.5739 1.25977 27.1613 1.49472 27.5137 1.84714L31.9777 6.19366C32.4476 6.66356 32.6826 7.13345 32.6826 7.83829V32.5078V32.5078Z" stroke="black" stroke-width="1.7" stroke-linecap="round" stroke-linejoin="round"/>
</g>
<defs>
<clipPath id="clip0">
<rect width="33.1276" height="35.3596" fill="white" transform="translate(0.494629 0.319984)"/>
</clipPath>
</defs>
</svg>
