<svg width="32" height="32" viewBox="0 0 32 32" fill="none" xmlns="http://www.w3.org/2000/svg">
<g clip-path="url(#clip0)">
<path d="M24.9288 32H3.95506C1.79775 32 0 30.2023 0 28.045C0 27.4457 0.479401 26.9663 1.07865 26.9663C1.6779 26.9663 2.1573 27.4457 2.1573 28.045C2.1573 29.1236 2.99625 29.9626 4.07491 29.9626H25.0487C25.6479 29.9626 26.1273 30.442 26.1273 31.0412C26.1273 31.6405 25.5281 32 24.9288 32Z" fill="black"/>
<path d="M1.07865 29.0038C0.479401 29.0038 0 28.5244 0 27.9251V5.03372C0 2.27717 2.27715 1.52588e-05 5.03371 1.52588e-05H25.0487C25.6479 1.52588e-05 26.1273 0.479416 26.1273 1.07867C26.1273 1.67792 25.6479 2.15732 25.0487 2.15732H5.03371C3.35581 2.15732 2.03745 3.47567 2.03745 5.15357V24.5693C2.6367 24.2098 3.35581 23.9701 3.95506 23.9701H24.9288C25.5281 23.9701 26.0075 24.4495 26.0075 25.0487C26.0075 25.648 25.5281 26.1274 24.9288 26.1274H3.95506C2.8764 26.1274 2.03745 26.9663 2.03745 28.045C2.03745 28.5244 1.55805 29.0038 1.07865 29.0038Z" fill="black"/>
<path d="M23.0113 32C22.412 32 21.9326 31.5206 21.9326 30.9213V24.9288C21.9326 24.3296 22.412 23.8502 23.0113 23.8502C23.6105 23.8502 24.0899 24.3296 24.0899 24.9288V30.9213C23.9701 31.5206 23.6105 32 23.0113 32Z" fill="black"/>
<path d="M11.0264 17.9775C10.4271 17.9775 9.94773 17.4981 9.94773 16.8989V8.98878C9.94773 8.38953 9.46833 8.02998 8.98893 8.02998C8.50953 8.02998 8.03013 8.50938 8.03013 8.98878V17.0187C8.03013 17.618 7.55073 18.0974 6.95148 18.0974C6.35223 18.0974 5.99268 17.618 5.99268 17.0187V8.98878C5.99268 7.31088 7.31103 5.99252 8.98893 5.99252C10.6668 5.99252 11.9852 7.31088 11.9852 8.98878V17.0187C11.9852 17.618 11.6256 17.9775 11.0264 17.9775Z" fill="black"/>
<path d="M11.0261 14.0225H6.95121C6.35196 14.0225 5.87256 13.5431 5.87256 12.9438C5.87256 12.3446 6.47181 11.985 6.95121 11.985H10.9063C11.5055 11.985 11.9849 12.4644 11.9849 13.0637C11.9849 13.6629 11.6254 14.0225 11.0261 14.0225Z" fill="black"/>
<path d="M17.0186 22.0525C16.4193 22.0525 15.9399 21.5731 15.9399 20.9738V11.0262C15.9399 10.427 16.4193 9.94759 17.0186 9.94759C17.6178 9.94759 17.9774 10.427 17.9774 11.0262V20.9738C17.9774 21.5731 17.6178 22.0525 17.0186 22.0525Z" fill="black"/>
<path d="M18.9364 17.0187H16.899C16.2997 17.0187 15.8203 16.5393 15.8203 15.9401C15.8203 15.3408 16.2997 14.8614 16.899 14.8614H18.9364C19.5357 14.8614 19.8952 14.382 19.8952 13.9026V12.9438C19.8952 12.3446 19.4158 11.985 18.9364 11.985H16.899C16.2997 11.985 15.8203 11.5056 15.8203 10.9064C15.8203 10.3071 16.2997 9.82773 16.899 9.82773H18.9364C20.6143 9.82773 21.9327 11.1461 21.9327 12.824V13.7828C22.0525 15.7004 20.6143 17.0187 18.9364 17.0187Z" fill="black"/>
<path d="M18.9364 22.0524H16.899C16.2997 22.0524 15.8203 21.573 15.8203 20.9738C15.8203 20.3745 16.2997 19.8951 16.899 19.8951H18.9364C19.5357 19.8951 19.8952 19.4157 19.8952 18.9363V17.9775C19.8952 17.3783 19.4158 17.0187 18.9364 17.0187H16.899C16.2997 17.0187 15.8203 16.5393 15.8203 15.9401C15.8203 15.3408 16.2997 14.8614 16.899 14.8614H18.9364C20.6143 14.8614 21.9327 16.1798 21.9327 17.8577V18.8165C22.0525 20.6142 20.6143 22.0524 18.9364 22.0524Z" fill="black"/>
<path d="M30.9214 17.9775C28.1648 17.9775 25.8877 15.7004 25.8877 12.9438V11.0262C25.8877 8.26968 28.1648 5.99252 30.9214 5.99252C31.5207 5.99252 32.0001 6.47192 32.0001 7.07117C32.0001 7.67043 31.5207 8.14983 30.9214 8.14983C29.2435 8.14983 27.9251 9.46818 27.9251 11.1461V13.1835C27.9251 14.8614 29.2435 16.1798 30.9214 16.1798C31.5207 16.1798 32.0001 16.6592 32.0001 17.2584C32.0001 17.8577 31.5207 17.9775 30.9214 17.9775Z" fill="black"/>
</g>
<defs>
<clipPath id="clip0">
<rect width="32" height="32" fill="white"/>
</clipPath>
</defs>
</svg>
