<svg width="87" height="34" viewBox="0 0 87 34" fill="none" xmlns="http://www.w3.org/2000/svg">
<g clip-path="url(#clip0)">
<path d="M0.535146 19.8863H5.25112L5.01699 10.1597L15.9875 19.8863H17.0578L16.7568 0.977325H12.0408L12.2415 11.044L0.936506 0.977325H0L0.535146 19.8863Z" fill="white"/>
<path d="M25.9878 0.841282L38.9316 0.705246V5.26244L30.9379 5.36447V7.88113H37.0921L37.1924 12.5063H31.0048V15.159H39.0989V19.6482H26.3223L25.9878 0.841282Z" fill="white"/>
<path d="M46.8252 0.705246H52.1098L55.4879 5.73857L58.8325 0.705246H63.9499L58.5315 9.95567L64.2174 19.4442H58.9663L55.5213 14.2408L52.3773 19.4442H47.0928L52.578 10.1597L46.8252 0.705246Z" fill="white"/>
<path d="M72.0439 0.535202H86.7605V5.05839H81.9776L82.1448 19.4442H76.9606V5.05839H72.0439V0.535202Z" fill="white"/>
<path d="M11.7397 26.314H13.3786L13.5124 32.4016H16.623V34H11.9739L11.7397 26.314Z" fill="white"/>
<path d="M25.8877 26.1779H30.6037V27.7083H27.3928L27.4597 29.3068H29.7675V30.9052H27.5266L27.56 32.4016H30.6037V34H26.0549L25.8877 26.1779Z" fill="white"/>
<path d="M70.2378 26.314H71.8767L72.0105 32.4016H75.121V34H70.5054L70.2378 26.314Z" fill="white"/>
<path d="M56.2905 26.1779H61.0399V27.7083H57.8291L57.896 29.3068H60.2038V30.9052H57.9294L57.9629 32.4016H61.0399V34H56.4578L56.2905 26.1779Z" fill="white"/>
<path d="M39.6675 26.1779H41.3733L43.3132 30.395L45.1193 26.1779H46.7582L43.3801 34L39.6675 26.1779Z" fill="white"/>
</g>
<defs>
<clipPath id="clip0">
<rect width="86.7606" height="33.4648" fill="white" transform="translate(0 0.535202)"/>
</clipPath>
</defs>
</svg>
