<svg width="35" height="36" viewBox="0 0 35 36" fill="none" xmlns="http://www.w3.org/2000/svg">
<g clip-path="url(#clip0)">
<path d="M9.89258 1.37724H25.1642" stroke="black" stroke-width="1.7" stroke-linecap="round" stroke-linejoin="round"/>
<path d="M23.0497 12.3023V1.37724H12.0072V12.3023L2.25684 27.4564C1.43453 28.7486 1.31705 30.5107 2.02189 31.9204C2.84421 33.3301 4.25389 34.2699 5.89853 34.2699H29.2758C30.9204 34.2699 32.3301 33.4475 33.1524 31.9204C33.9747 30.5107 33.8573 28.7486 32.9175 27.4564L23.0497 12.3023Z" stroke="black" stroke-width="1.7" stroke-linecap="round" stroke-linejoin="round"/>
<path d="M7.77783 18.8808H27.2785" stroke="black" stroke-width="1.7" stroke-linecap="round" stroke-linejoin="round"/>
<path d="M20.8174 25.4594H25.1639" stroke="black" stroke-width="1.7" stroke-linecap="round" stroke-linejoin="round"/>
<path d="M23.0493 23.2273V27.5739" stroke="black" stroke-width="1.7" stroke-linecap="round" stroke-linejoin="round"/>
<path d="M9.89258 28.1612C10.245 28.1612 10.4799 28.3962 10.4799 28.7486" stroke="black" stroke-width="1.7" stroke-linecap="round" stroke-linejoin="round"/>
<path d="M9.30518 28.7486C9.30518 28.3962 9.54012 28.1612 9.89254 28.1612" stroke="black" stroke-width="1.7" stroke-linecap="round" stroke-linejoin="round"/>
<path d="M9.89254 29.336C9.54012 29.336 9.30518 29.101 9.30518 28.7486" stroke="black" stroke-width="1.7" stroke-linecap="round" stroke-linejoin="round"/>
<path d="M10.3623 28.7486C10.3623 29.101 10.1273 29.336 9.7749 29.336" stroke="black" stroke-width="1.7" stroke-linecap="round" stroke-linejoin="round"/>
<path d="M14.2388 23.8147C14.5912 23.8147 14.8261 24.0497 14.8261 24.4021" stroke="black" stroke-width="1.7" stroke-linecap="round" stroke-linejoin="round"/>
<path d="M13.6514 24.4021C13.6514 24.0497 13.8863 23.8147 14.2387 23.8147" stroke="black" stroke-width="1.7" stroke-linecap="round" stroke-linejoin="round"/>
<path d="M14.2387 24.872C13.8863 24.872 13.6514 24.637 13.6514 24.2846" stroke="black" stroke-width="1.7" stroke-linecap="round" stroke-linejoin="round"/>
<path d="M14.8261 24.4021C14.8261 24.7545 14.5912 24.9895 14.2388 24.9895" stroke="black" stroke-width="1.7" stroke-linecap="round" stroke-linejoin="round"/>
<path d="M23.0497 5.72377H18.7031" stroke="black" stroke-width="1.7" stroke-linecap="round" stroke-linejoin="round"/>
<path d="M23.0497 10.0703H18.7031" stroke="black" stroke-width="1.7" stroke-linecap="round" stroke-linejoin="round"/>
</g>
<defs>
<clipPath id="clip0">
<rect width="34.0674" height="34.8897" fill="white" transform="translate(0.494629 0.319986)"/>
</clipPath>
</defs>
</svg>
