<svg width="30" height="30" viewBox="0 0 30 30" fill="none" xmlns="http://www.w3.org/2000/svg">
<g clip-path="url(#clip0)">
<path d="M10.5539 13.8428L9.26172 18.8942L14.3131 17.602L21.9489 9.9662L18.1897 6.20704L10.5539 13.8428Z" stroke="black" stroke-width="1.5333" stroke-linecap="round" stroke-linejoin="round"/>
<path d="M26.4128 5.61967L27.705 6.91188C28.0575 7.26431 28.1749 7.7342 28.1749 8.2041C28.1749 8.67399 27.94 9.14388 27.705 9.49631L23.7109 13.4904" stroke="black" stroke-width="1.5333" stroke-linecap="round" stroke-linejoin="round"/>
<path d="M21.9486 10.0837L26.4126 5.61968C26.765 5.26726 26.8825 4.79737 26.8825 4.32747C26.8825 3.85758 26.6476 3.38768 26.4126 3.03526L25.1204 1.74305C24.4156 1.03821 23.2408 1.03821 22.536 1.74305L18.1895 6.20705" stroke="black" stroke-width="1.5333" stroke-linecap="round" stroke-linejoin="round"/>
<path d="M24.6507 16.5447V20.3039C24.6507 20.7738 24.4157 21.2437 24.1808 21.5961L17.9547 27.7047C17.6023 28.0571 17.1324 28.1746 16.6625 28.1746H3.03554C2.09575 28.1746 1.27344 27.3523 1.27344 26.4125V3.03526C1.27344 2.09547 2.09575 1.27315 3.03554 1.27315H16.545" stroke="black" stroke-width="1.5333" stroke-linecap="round" stroke-linejoin="round"/>
<path d="M17.4849 28.0571V22.7708C17.4849 21.831 18.3072 21.0087 19.247 21.0087H24.5333" stroke="black" stroke-width="1.5333" stroke-linecap="round" stroke-linejoin="round"/>
</g>
<defs>
<clipPath id="clip0">
<rect width="28.781" height="28.781" fill="white" transform="translate(0.333496 0.333364)"/>
</clipPath>
</defs>
</svg>
