<svg width="36" height="40" viewBox="0 0 36 40" fill="none" xmlns="http://www.w3.org/2000/svg">
<g id="Group 32">
<path id="Fill 1" fill-rule="evenodd" clip-rule="evenodd" d="M28.719 25.1142C28.719 30.0924 24.6835 34.1276 19.7052 34.1276C14.7269 34.1276 10.6914 30.0924 10.6914 25.1142C10.6914 20.1359 14.7269 16.1004 19.7052 16.1004C24.6835 16.1004 28.719 20.1359 28.719 25.1142Z" fill="#008EF6"/>
<path id="Fill 1_2" fill-rule="evenodd" clip-rule="evenodd" d="M27.2746 26.5413C27.2746 30.3323 24.2016 33.405 20.4107 33.405C16.6199 33.405 13.5469 30.3323 13.5469 26.5413C13.5469 22.7504 16.6199 19.6773 20.4107 19.6773C24.2016 19.6773 27.2746 22.7504 27.2746 26.5413Z" fill="#00D4F6"/>
<path id="Fill 3" fill-rule="evenodd" clip-rule="evenodd" d="M6.50086 12.7218C6.29896 12.7218 6.09787 12.645 5.94453 12.4912L3.24985 9.79654C2.94276 9.48904 2.94276 8.99056 3.24985 8.68387C3.55735 8.37637 4.05542 8.37637 4.36292 8.68387L7.05719 11.3781C7.36469 11.6856 7.36469 12.1841 7.05719 12.4912C6.90344 12.645 6.70276 12.7218 6.50086 12.7218Z" fill="white"/>
<path id="Fill 5" fill-rule="evenodd" clip-rule="evenodd" d="M29.245 12.8338C29.0431 12.8338 28.842 12.7569 28.6886 12.6031C28.3811 12.2956 28.3811 11.7972 28.6886 11.4905L31.4954 8.68372C31.8029 8.37622 32.301 8.37622 32.6085 8.68372C32.9155 8.99122 32.9155 9.48929 32.6085 9.79639L29.8013 12.6031C29.6475 12.7569 29.4465 12.8338 29.245 12.8338Z" fill="white"/>
<g id="Group 9">
<path id="Fill 7" fill-rule="evenodd" clip-rule="evenodd" d="M14.4522 1.57432C14.4218 1.57432 14.398 1.59859 14.398 1.62853V3.31129C14.398 3.34123 14.4218 3.36551 14.4522 3.36551H21.1836C21.214 3.36551 21.2378 3.34123 21.2378 3.31129V1.62853C21.2378 1.59859 21.214 1.57432 21.1836 1.57432H14.4522ZM21.1818 4.93943H14.4504C13.5526 4.93943 12.8223 4.20952 12.8223 3.31129V1.62854C12.8223 0.730718 13.5526 0 14.4504 0H21.1818C22.0796 0 22.8104 0.730718 22.8104 1.62854V3.31129C22.8104 4.20952 22.0796 4.93943 21.1818 4.93943Z" fill="white"/>
</g>
<path id="Fill 10" fill-rule="evenodd" clip-rule="evenodd" d="M17.8192 24.0138C17.6173 24.0138 17.4162 23.9369 17.2629 23.7831C16.9554 23.476 16.9554 22.9772 17.2629 22.6701L22.8051 17.127C23.1126 16.8199 23.6103 16.8199 23.9182 17.127C24.2253 17.4345 24.2253 17.9329 23.9182 18.24L18.3755 23.7831C18.2218 23.9369 18.0207 24.0138 17.8192 24.0138Z" fill="white"/>
<path id="Fill 12" fill-rule="evenodd" clip-rule="evenodd" d="M17.8215 22.8939C17.6382 22.8939 17.4889 23.0428 17.4889 23.2265C17.4889 23.4098 17.6382 23.5595 17.8215 23.5595C18.0048 23.5595 18.1541 23.4098 18.1541 23.2265C18.1541 23.0428 18.0048 22.8939 17.8215 22.8939ZM17.82 25.1334C16.7684 25.1334 15.9131 24.278 15.9131 23.2265C15.9131 22.1753 16.7684 21.3196 17.82 21.3196C18.8716 21.3196 19.7265 22.1753 19.7265 23.2265C19.7265 24.278 18.8716 25.1334 17.82 25.1334Z" fill="white"/>
<path id="Fill 14" fill-rule="evenodd" clip-rule="evenodd" d="M17.8192 16.8873C17.3842 16.8873 17.0322 16.5349 17.0322 16.1003V14.5167C17.0322 14.0818 17.3842 13.7293 17.8192 13.7293C18.2537 13.7293 18.6061 14.0818 18.6061 14.5167V16.1003C18.6061 16.5349 18.2537 16.8873 17.8192 16.8873Z" fill="white"/>
<path id="Fill 16" fill-rule="evenodd" clip-rule="evenodd" d="M17.8192 32.7234C17.3842 32.7234 17.0322 32.3714 17.0322 31.9364V30.3532C17.0322 29.9179 17.3842 29.5658 17.8192 29.5658C18.2537 29.5658 18.6061 29.9179 18.6061 30.3532V31.9364C18.6061 32.3714 18.2537 32.7234 17.8192 32.7234Z" fill="white"/>
<path id="Fill 18" fill-rule="evenodd" clip-rule="evenodd" d="M10.6915 24.0137H9.10825C8.6733 24.0137 8.32129 23.6613 8.32129 23.2267C8.32129 22.7918 8.6733 22.4394 9.10825 22.4394H10.6915C11.126 22.4394 11.4784 22.7918 11.4784 23.2267C11.4784 23.6613 11.126 24.0137 10.6915 24.0137Z" fill="white"/>
<path id="Fill 20" fill-rule="evenodd" clip-rule="evenodd" d="M26.5294 24.0137H24.9461C24.5116 24.0137 24.1592 23.6613 24.1592 23.2267C24.1592 22.7918 24.5116 22.4394 24.9461 22.4394H26.5294C26.9643 22.4394 27.3163 22.7918 27.3163 23.2267C27.3163 23.6613 26.9643 24.0137 26.5294 24.0137Z" fill="white"/>
<g id="Group 24">
<path id="Fill 22" fill-rule="evenodd" clip-rule="evenodd" d="M17.8183 39.9999C8.56937 39.9999 1.04492 32.4751 1.04492 23.2266C1.04492 15.6771 6.12677 9.0209 13.404 7.04076C13.8195 6.92706 14.2561 7.17387 14.3702 7.59345C14.4843 8.01262 14.2363 8.44555 13.8171 8.55924C7.22406 10.3537 2.61924 16.3847 2.61924 23.2266C2.61924 31.6076 9.43766 38.4256 17.8183 38.4256C26.1989 38.4256 33.0173 31.6076 33.0173 23.2266C33.0173 14.8456 26.1989 8.02759 17.8183 8.02759C17.3833 8.02759 17.0313 7.67518 17.0313 7.24023C17.0313 6.80568 17.3833 6.45367 17.8183 6.45367C27.0671 6.45367 34.5912 13.9781 34.5912 23.2266C34.5912 32.4751 27.0671 39.9999 17.8183 39.9999Z" fill="white"/>
</g>
<path id="Fill 25" fill-rule="evenodd" clip-rule="evenodd" d="M17.8218 12.1364C11.7062 12.1364 6.7312 17.1114 6.7312 23.2266C6.7312 29.3418 11.7062 34.3165 17.8218 34.3165C23.9371 34.3165 28.9121 29.3418 28.9121 23.2266C28.9121 17.1114 23.9371 12.1364 17.8218 12.1364ZM5.15527 23.2266C5.15527 16.2435 10.8367 10.562 17.8198 10.562C24.8029 10.562 30.4844 16.2435 30.4844 23.2266C30.4844 30.2097 24.8029 35.8908 17.8198 35.8908C10.8367 35.8908 5.15527 30.2097 5.15527 23.2266Z" fill="white"/>
<path id="Fill 27" fill-rule="evenodd" clip-rule="evenodd" d="M0.786958 12.1363C0.58506 12.1363 0.383971 12.0598 0.230625 11.9061C-0.0768751 11.5986 -0.0768751 11.1001 0.230625 10.793L5.50749 5.51612C5.81459 5.20862 6.31266 5.20862 6.62016 5.51612C6.92766 5.82322 6.92766 6.32169 6.62016 6.62919L1.34329 11.9061C1.18954 12.0598 0.988856 12.1363 0.786958 12.1363Z" fill="white"/>
<g id="Group 31">
<path id="Fill 29" fill-rule="evenodd" clip-rule="evenodd" d="M34.6918 12.1363C34.4899 12.1363 34.2892 12.0598 34.1354 11.9061L28.8586 6.62919C28.5511 6.32169 28.5511 5.82322 28.8586 5.51612C29.1661 5.20862 29.6641 5.20862 29.9712 5.51612L35.2481 10.793C35.5556 11.1001 35.5556 11.5986 35.2481 11.9061C35.0943 12.0598 34.8937 12.1363 34.6918 12.1363Z" fill="white"/>
</g>
</g>
</svg>
