<svg width="17" height="15" viewBox="0 0 17 15" fill="none" xmlns="http://www.w3.org/2000/svg">
<path fill-rule="evenodd" clip-rule="evenodd" d="M14.2438 6.98001L8.78192 6.98001V8.42001L14.2438 8.42001L12.5929 10.071L13.611 11.0891L17 7.70001L13.611 4.31097L12.5929 5.32905L14.2438 6.98001Z" fill="#FEC310"/>
<path fill-rule="evenodd" clip-rule="evenodd" d="M12.4341 12.7875L11.416 11.7694C9.1696 14.0151 5.5156 14.0143 3.2692 11.7679C2.18128 10.6807 1.58224 9.23425 1.58224 7.69633C1.58224 6.15769 2.18128 4.71121 3.2692 3.62401C5.5156 1.37761 9.1696 1.37761 11.416 3.62257L12.4341 2.60449C9.6268 -0.202066 5.0584 -0.202066 2.25112 2.60521C0.891043 3.96529 0.142242 5.77249 0.142242 7.69633C0.142242 9.61945 0.891043 11.4274 2.25112 12.7867C5.0584 15.594 9.6268 15.594 12.4341 12.7875Z" fill="#FEC310"/>
</svg>
